<svg width="194" height="29" viewBox="0 0 194 29" fill="none" xmlns="http://www.w3.org/2000/svg">
<path d="M23.8555 19.668L23.8203 25.1523C22.7422 25.3633 21.6758 25.5625 20.6211 25.75C19.5664 25.9375 18.5 26.1016 17.4219 26.2422C16.2969 26.3828 15.1719 26.5117 14.0469 26.6289C12.9219 26.7461 11.7969 26.8047 10.6719 26.8047C10.3438 26.8047 9.86328 26.793 9.23047 26.7695C8.59766 26.7461 7.94141 26.6992 7.26172 26.6289C6.58203 26.5586 5.9375 26.4766 5.32812 26.3828C4.71875 26.2656 4.27344 26.125 3.99219 25.9609C3.73438 25.7969 3.48828 25.6094 3.25391 25.3984C3.01953 25.1641 2.80859 24.9297 2.62109 24.6953C2.12891 24.0859 1.71875 23.418 1.39062 22.6914C1.0625 21.9648 0.804688 21.2148 0.617188 20.4414C0.429688 19.668 0.289062 18.8828 0.195312 18.0859C0.125 17.2891 0.0898438 16.5039 0.0898438 15.7305C0.0898438 14.793 0.136719 13.8203 0.230469 12.8125C0.347656 11.8047 0.523438 10.8086 0.757812 9.82422C0.992188 8.83984 1.29688 7.89062 1.67188 6.97656C2.07031 6.0625 2.55078 5.21875 3.11328 4.44531C3.27734 4.23438 3.48828 3.97656 3.74609 3.67188C4.00391 3.36719 4.26172 3.14453 4.51953 3.00391C5.15234 2.65234 5.85547 2.35937 6.62891 2.125C7.42578 1.89063 8.24609 1.71484 9.08984 1.59766C9.93359 1.45703 10.7656 1.36328 11.5859 1.31641C12.4297 1.24609 13.2031 1.21094 13.9062 1.21094C15.2422 1.21094 16.5781 1.29297 17.9141 1.45703C19.25 1.59766 20.5508 1.85547 21.8164 2.23047C21.7695 2.86328 21.7344 3.50781 21.7109 4.16406C21.6875 4.79688 21.6758 5.42969 21.6758 6.0625C21.6758 7.58594 21.7109 9.12109 21.7812 10.668C20.7266 10.2695 19.625 9.98828 18.4766 9.82422C17.3281 9.63672 16.1914 9.54297 15.0664 9.54297C14.832 9.54297 14.4922 9.56641 14.0469 9.61328C13.6016 9.63672 13.0977 9.68359 12.5352 9.75391C11.9727 9.80078 11.3867 9.87109 10.7773 9.96484C10.1914 10.0586 9.64062 10.1758 9.125 10.3164C8.60938 10.457 8.15234 10.6211 7.75391 10.8086C7.37891 10.9961 7.13281 11.1953 7.01562 11.4062C6.92188 11.5938 6.83984 11.8633 6.76953 12.2148C6.72266 12.543 6.67578 12.8945 6.62891 13.2695C6.60547 13.6445 6.58203 14.0078 6.55859 14.3594C6.55859 14.7109 6.55859 14.9922 6.55859 15.2031C6.55859 15.4141 6.58203 15.8359 6.62891 16.4688C6.67578 17.1016 6.73438 17.7812 6.80469 18.5078C6.875 19.2109 6.95703 19.8555 7.05078 20.4414C7.16797 21.0273 7.28516 21.3672 7.40234 21.4609C7.51953 21.5312 7.70703 21.5781 7.96484 21.6016C8.24609 21.6016 8.43359 21.6016 8.52734 21.6016C9.67578 21.6016 10.9062 21.543 12.2188 21.4258C13.5312 21.3086 14.8555 21.1562 16.1914 20.9688C17.5508 20.7578 18.8867 20.5469 20.1992 20.3359C21.5117 20.1016 22.7305 19.8789 23.8555 19.668ZM44.3516 27.1211C41.5625 27.332 38.7852 27.5312 36.0195 27.7188C33.2773 27.9062 30.5117 28.082 27.7227 28.2461C27.6055 23.7695 27.5117 19.3281 27.4414 14.9219C27.3711 10.4922 27.2422 6.02734 27.0547 1.52734C28.625 1.50391 30.1719 1.45703 31.6953 1.38672C33.2188 1.31641 34.7539 1.22266 36.3008 1.10547C36.043 2.83984 35.7969 4.58594 35.5625 6.34375C35.3516 8.07812 35.1875 9.82422 35.0703 11.582C34.9766 13.0586 34.8945 14.5352 34.8242 16.0117C34.7773 17.4648 34.7305 18.9297 34.6836 20.4062C36.2305 20.4531 37.7539 20.4766 39.2539 20.4766C40.7773 20.4766 42.3008 20.5 43.8242 20.5469L44.3516 27.1211ZM76.5195 12.9883C76.5195 13.293 76.5195 13.5977 76.5195 13.9023C76.5195 14.1836 76.5078 14.4648 76.4844 14.7461C76.4609 14.9805 76.4258 15.3906 76.3789 15.9766C76.3555 16.5625 76.3086 17.2422 76.2383 18.0156C76.1914 18.7656 76.1211 19.5625 76.0273 20.4062C75.957 21.25 75.8633 22.0352 75.7461 22.7617C75.6523 23.4648 75.5469 24.0742 75.4297 24.5898C75.3125 25.1055 75.1953 25.4219 75.0781 25.5391C74.375 26.2422 73.5312 26.7695 72.5469 27.1211C71.5859 27.4492 70.5781 27.6719 69.5234 27.7891C68.4688 27.9062 67.4141 27.9531 66.3594 27.9297C65.3047 27.9062 64.3203 27.8945 63.4062 27.8945C63.1016 27.8945 62.5859 27.8945 61.8594 27.8945C61.1328 27.8711 60.3008 27.8477 59.3633 27.8242C58.4492 27.8008 57.4883 27.7656 56.4805 27.7188C55.4727 27.6484 54.5234 27.5664 53.6328 27.4727C52.7656 27.3555 52.0039 27.2266 51.3477 27.0859C50.7148 26.9219 50.3164 26.7227 50.1523 26.4883C49.9648 26.2305 49.8008 25.9492 49.6602 25.6445C49.5195 25.3398 49.3906 25.0469 49.2734 24.7656C48.9688 23.9922 48.6875 23.1719 48.4297 22.3047C48.1719 21.4141 47.9492 20.5117 47.7617 19.5977C47.5977 18.6602 47.457 17.7344 47.3398 16.8203C47.2461 15.9062 47.1992 15.0391 47.1992 14.2188C47.1992 13.7734 47.2344 13.1992 47.3047 12.4961C47.375 11.7695 47.4688 10.9961 47.5859 10.1758C47.7031 9.33203 47.8438 8.47656 48.0078 7.60938C48.1719 6.74219 48.3477 5.93359 48.5352 5.18359C48.7461 4.43359 48.9688 3.78906 49.2031 3.25C49.4375 2.6875 49.6953 2.3125 49.9766 2.125C50.2109 1.96094 50.6445 1.80859 51.2773 1.66797C51.9102 1.52734 52.6484 1.41016 53.4922 1.31641C54.3359 1.19922 55.2383 1.10547 56.1992 1.03516C57.1602 0.941406 58.0742 0.871094 58.9414 0.824219C59.8086 0.753906 60.5938 0.707031 61.2969 0.683594C62 0.660156 62.5156 0.648438 62.8438 0.648438C63.2891 0.648438 63.8867 0.671875 64.6367 0.71875C65.4102 0.765625 66.2422 0.847656 67.1328 0.964844C68.0234 1.05859 68.9258 1.1875 69.8398 1.35156C70.7539 1.49219 71.5977 1.66797 72.3711 1.87891C73.168 2.08984 73.8477 2.32422 74.4102 2.58203C74.9727 2.83984 75.3242 3.12109 75.4648 3.42578C75.582 3.68359 75.6875 4.05859 75.7812 4.55078C75.8984 5.01953 75.9922 5.55859 76.0625 6.16797C76.1328 6.77734 76.1914 7.42188 76.2383 8.10156C76.3086 8.78125 76.3555 9.4375 76.3789 10.0703C76.4258 10.6797 76.4609 11.2422 76.4844 11.7578C76.5078 12.2734 76.5195 12.6836 76.5195 12.9883ZM70.2266 14.1484C70.2266 13.6797 70.2031 13.1875 70.1562 12.6719C70.1094 12.1328 69.957 11.6641 69.6992 11.2656C69.5117 10.9844 69.0547 10.7617 68.3281 10.5977C67.625 10.4336 66.8398 10.3164 65.9727 10.2461C65.1289 10.1758 64.3086 10.1406 63.5117 10.1406C62.7148 10.1172 62.1523 10.1055 61.8242 10.1055C61.5664 10.1055 61.1094 10.1289 60.4531 10.1758C59.8203 10.2227 59.1406 10.3047 58.4141 10.4219C57.7109 10.5156 57.0547 10.6445 56.4453 10.8086C55.8359 10.9492 55.4609 11.125 55.3203 11.3359C55.1797 11.5 55.0625 11.8164 54.9688 12.2852C54.8984 12.7305 54.8281 13.2227 54.7578 13.7617C54.7109 14.2773 54.6758 14.7812 54.6523 15.2734C54.6289 15.7422 54.6172 16.082 54.6172 16.293C54.6172 16.4805 54.6172 16.7617 54.6172 17.1367C54.6406 17.5117 54.6758 17.8984 54.7227 18.2969C54.7695 18.6953 54.8164 19.0703 54.8633 19.4219C54.9336 19.7734 55.0273 20.0312 55.1445 20.1953C55.2148 20.3125 55.4258 20.418 55.7773 20.5117C56.1289 20.6055 56.5508 20.6992 57.043 20.793C57.5586 20.8633 58.0977 20.9219 58.6602 20.9688C59.2227 21.0156 59.7617 21.0625 60.2773 21.1094C60.8164 21.1328 61.2852 21.1562 61.6836 21.1797C62.1055 21.1797 62.3984 21.1797 62.5625 21.1797C62.8438 21.1797 63.3242 21.1562 64.0039 21.1094C64.707 21.0625 65.4336 20.9922 66.1836 20.8984C66.957 20.7812 67.6602 20.6523 68.293 20.5117C68.9492 20.3477 69.3711 20.1602 69.5586 19.9492C69.6992 19.7852 69.8164 19.4453 69.9102 18.9297C70.0039 18.3906 70.0742 17.8164 70.1211 17.207C70.168 16.5742 70.1914 15.9766 70.1914 15.4141C70.2148 14.8281 70.2266 14.4062 70.2266 14.1484ZM111.359 2.37109C110.867 6.75391 110.258 11.0195 109.531 15.168C108.805 19.293 107.949 23.5117 106.965 27.8242C106.707 27.8477 106.438 27.8594 106.156 27.8594C105.875 27.8594 105.605 27.8594 105.348 27.8594C104.738 27.8594 104.129 27.8477 103.52 27.8242C102.934 27.8008 102.336 27.7305 101.727 27.6133C100.977 26.043 100.191 24.4961 99.3711 22.9727C98.5508 21.4258 97.7773 19.8438 97.0508 18.2266C96.7227 19.0234 96.3477 19.7969 95.9258 20.5469C95.5273 21.2969 95.0938 22.0469 94.625 22.7969C94.0156 23.7109 93.4297 24.6367 92.8672 25.5742C92.3047 26.5117 91.7539 27.4609 91.2148 28.4219L85.4844 28.2812C84.9453 26.1719 84.4297 24.0859 83.9375 22.0234C83.4688 19.9609 83 17.875 82.5312 15.7656C81.9219 13.1406 81.2891 10.5508 80.6328 7.99609C80 5.41797 79.3438 2.82812 78.6641 0.226562H88.8594C88.9531 1 89.0352 1.77344 89.1055 2.54688C89.1758 3.32031 89.2461 4.08203 89.3164 4.83203C89.5039 6.87109 89.7148 8.89844 89.9492 10.9141C90.1836 12.9062 90.418 14.9219 90.6523 16.9609C91.0508 15.5312 91.4492 14.1133 91.8477 12.707C92.2695 11.3008 92.7266 9.89453 93.2188 8.48828C93.6406 7.22266 94.0508 5.98047 94.4492 4.76172C94.8477 3.51953 95.2344 2.26562 95.6094 1H97.332C98.1055 3.83594 98.9727 6.625 99.9336 9.36719C100.895 12.0859 101.938 14.8047 103.062 17.5234C103.648 14.9688 104.152 12.4023 104.574 9.82422C105.02 7.24609 105.477 4.66797 105.945 2.08984L111.359 2.37109ZM140.328 15.3789C140.328 16.0586 140.328 16.7734 140.328 17.5234C140.328 18.2734 140.246 18.9883 140.082 19.668C139.965 20.1836 139.836 20.6406 139.695 21.0391C139.555 21.4141 139.379 21.7656 139.168 22.0938C138.957 22.3984 138.699 22.6914 138.395 22.9727C138.09 23.2305 137.715 23.4883 137.27 23.7461C137.129 23.8398 136.754 23.9688 136.145 24.1328C135.535 24.2734 134.773 24.4492 133.859 24.6602C132.969 24.8711 131.961 25.0938 130.836 25.3281C129.734 25.5625 128.598 25.7969 127.426 26.0312C126.277 26.2422 125.129 26.4648 123.98 26.6992C122.855 26.9102 121.824 27.1094 120.887 27.2969C119.973 27.4609 119.188 27.6133 118.531 27.7539C117.898 27.8711 117.477 27.9414 117.266 27.9648C116.867 23.6758 116.492 19.4219 116.141 15.2031C115.789 10.9844 115.52 6.71875 115.332 2.40625C117.301 2.47656 119.258 2.55859 121.203 2.65234C123.148 2.72266 125.117 2.82812 127.109 2.96875C127.625 3.01563 128.375 3.07422 129.359 3.14453C130.367 3.21484 131.41 3.32031 132.488 3.46094C133.566 3.57813 134.574 3.73047 135.512 3.91797C136.473 4.10547 137.164 4.33984 137.586 4.62109C138.125 5.01953 138.605 5.55859 139.027 6.23828C139.449 6.91797 139.754 7.58594 139.941 8.24219C140.035 8.54688 140.105 9.02734 140.152 9.68359C140.199 10.3164 140.234 10.9961 140.258 11.7227C140.281 12.4492 140.293 13.1523 140.293 13.832C140.316 14.5117 140.328 15.0273 140.328 15.3789ZM131.574 15.8359C131.574 15.5781 131.562 15.3086 131.539 15.0273C131.539 14.7227 131.527 14.4414 131.504 14.1836C131.457 13.8086 131.387 13.4219 131.293 13.0234C131.223 12.6016 131.117 12.2031 130.977 11.8281C130.836 11.4297 130.66 11.0664 130.449 10.7383C130.238 10.3867 129.98 10.082 129.676 9.82422C129.512 9.68359 129.113 9.57812 128.48 9.50781C127.848 9.41406 127.156 9.35547 126.406 9.33203C125.656 9.28516 124.953 9.26172 124.297 9.26172C123.641 9.23828 123.219 9.22656 123.031 9.22656H121.59C121.777 11.0547 121.941 12.8594 122.082 14.6406C122.246 16.3984 122.387 18.1914 122.504 20.0195C122.949 19.9961 123.582 19.9375 124.402 19.8438C125.246 19.7266 126.102 19.5859 126.969 19.4219C127.836 19.2344 128.645 19.0117 129.395 18.7539C130.145 18.4727 130.684 18.1445 131.012 17.7695C131.27 17.4883 131.422 17.1953 131.469 16.8906C131.539 16.5625 131.574 16.2109 131.574 15.8359ZM164.691 6.58984C162.395 6.70703 160.109 6.83594 157.836 6.97656C155.586 7.09375 153.312 7.24609 151.016 7.43359L150.945 10.2109L160.016 9.68359C160.133 10.4805 160.215 11.2656 160.262 12.0391C160.332 12.8125 160.367 13.5977 160.367 14.3945C160.367 14.7227 160.355 15.0625 160.332 15.4141C160.332 15.7656 160.332 16.1055 160.332 16.4336L151.895 17.9453L152.422 22.3047C154.203 22.1875 155.973 22.0234 157.73 21.8125C159.512 21.5781 161.305 21.3789 163.109 21.2148C163.273 22.3867 163.438 23.5703 163.602 24.7656C163.766 25.9375 164 27.0859 164.305 28.2109C160.977 28.1875 157.672 28.1875 154.391 28.2109C151.109 28.2578 147.805 28.2812 144.477 28.2812C144.547 25.5391 144.629 22.8086 144.723 20.0898C144.816 17.3711 144.863 14.6289 144.863 11.8633V11.1953C144.863 9.60156 144.84 8.01953 144.793 6.44922C144.746 4.85547 144.699 3.25 144.652 1.63281C146.504 1.65625 148.344 1.66797 150.172 1.66797C152.023 1.64453 153.887 1.63281 155.762 1.63281C157.191 1.63281 158.609 1.66797 160.016 1.73828C161.445 1.78516 162.875 1.84375 164.305 1.91406L164.691 6.58984ZM193.273 10.3164C193.273 12.2383 192.688 13.75 191.516 14.8516C190.344 15.9531 188.797 16.5508 186.875 16.6445C189.195 20.5117 191.223 24.4727 192.957 28.5273L182.691 28.7734C182.504 26.875 182.223 25.1289 181.848 23.5352C181.473 21.9414 180.945 20.2656 180.266 18.5078C179.492 18.5547 178.719 18.6133 177.945 18.6836C177.195 18.7539 176.445 18.8125 175.695 18.8594L175.871 26.8398C174.535 26.9102 173.199 26.9453 171.863 26.9453C171.184 26.9453 170.516 26.9336 169.859 26.9102C169.227 26.8867 168.582 26.8398 167.926 26.7695C168.09 24.6133 168.242 22.4688 168.383 20.3359C168.523 18.1797 168.605 16.0352 168.629 13.9023C168.699 10.1055 168.805 6.30859 168.945 2.51172C171.148 2.39453 173.34 2.26562 175.52 2.125C177.723 1.98438 179.926 1.91406 182.129 1.91406C182.691 1.91406 183.301 1.92578 183.957 1.94922C184.613 1.97266 185.27 2.04297 185.926 2.16016C186.605 2.25391 187.25 2.39453 187.859 2.58203C188.492 2.76953 189.055 3.01563 189.547 3.32031C190.742 4.07031 191.656 5.07812 192.289 6.34375C192.945 7.58594 193.273 8.91016 193.273 10.3164ZM185.117 9.75391C185.117 9.56641 185.105 9.30859 185.082 8.98047C185.082 8.65234 185.059 8.32422 185.012 7.99609C184.965 7.64453 184.895 7.32812 184.801 7.04688C184.707 6.74219 184.578 6.51953 184.414 6.37891C184.297 6.28516 184.098 6.21484 183.816 6.16797C183.535 6.12109 183.23 6.08594 182.902 6.0625C182.598 6.01562 182.293 5.99219 181.988 5.99219C181.707 5.96875 181.508 5.95703 181.391 5.95703C180.453 5.95703 179.527 6.00391 178.613 6.09766C177.723 6.19141 176.832 6.30859 175.941 6.44922L176.891 13.2695C177.406 13.3867 177.945 13.4688 178.508 13.5156C179.07 13.5625 179.621 13.5859 180.16 13.5859C180.395 13.5859 180.734 13.5742 181.18 13.5508C181.648 13.5273 182.117 13.4805 182.586 13.4102C183.078 13.3398 183.523 13.2461 183.922 13.1289C184.344 12.9883 184.637 12.8125 184.801 12.6016C184.871 12.5078 184.93 12.332 184.977 12.0742C185.023 11.793 185.047 11.5117 185.047 11.2305C185.07 10.9258 185.082 10.6328 185.082 10.3516C185.105 10.0703 185.117 9.87109 185.117 9.75391Z" fill="#2D2E2E"/>
</svg>
