<svg xmlns="http://www.w3.org/2000/svg" data-name="Layer 1" viewBox="0 0 100 125" x="0px" y="0px"><path d="M50,51.63c-7.2,0-13,4.9-13,10.94s5.83,7.8,13,7.8,13-1.76,13-7.8S57.2,51.63,50,51.63Z"/><path d="M27.79,46.09C25,47.54,24.17,51.4,25.9,54.71s5.38,4.81,8.16,3.35,3.62-5.31,1.89-8.62S30.57,44.63,27.79,46.09Z"/><path d="M72.21,46.09c-2.78-1.46-6.43,0-8.16,3.35s-.89,7.17,1.89,8.62,6.43-.05,8.16-3.35S75,47.54,72.21,46.09Z"/><ellipse cx="41.93" cy="39.07" rx="7.05" ry="9.5" transform="translate(-5.92 7.53) rotate(-9.59)"/><path d="M57.29,48.44c3.84.65,7.66-3,8.53-8.19s-1.53-9.9-5.37-10.55-7.66,3-8.54,8.2S53.44,47.79,57.29,48.44Z"/><text x="0" y="115" fill="#000000" font-size="5px" font-weight="bold" font-family="'Helvetica Neue', Helvetica, Arial-Unicode, Arial, Sans-serif">Created by andrianxia</text><text x="0" y="120" fill="#000000" font-size="5px" font-weight="bold" font-family="'Helvetica Neue', Helvetica, Arial-Unicode, Arial, Sans-serif">from the Noun Project</text></svg>